<svg width="14" height="8" viewBox="0 0 14 8" fill="none" xmlns="http://www.w3.org/2000/svg">
<path d="M7.92907 7.07973L13.968 0.645906C13.9838 0.633879 13.9946 0.616512 13.9985 0.59707C14.0023 0.577628 13.9989 0.557451 13.9889 0.540332C13.9789 0.523213 13.963 0.510332 13.9442 0.50411C13.9254 0.497888 13.905 0.498754 13.8867 0.506546H0.113253C0.0950305 0.498754 0.0745892 0.497888 0.0557726 0.50411C0.0369559 0.510332 0.0210601 0.523213 0.011074 0.540332C0.001088 0.557451 -0.0023004 0.577628 0.00154573 0.59707C0.00539187 0.616512 0.0162077 0.633879 0.0319596 0.645906L6.07093 7.07973C6.19034 7.20627 6.33434 7.30707 6.4941 7.37597C6.65386 7.44487 6.82602 7.48041 7 7.48041C7.17398 7.48041 7.34614 7.44487 7.5059 7.37597C7.66566 7.30707 7.80966 7.20627 7.92907 7.07973Z" fill="white"/>
</svg>
